HIERARCHY
ROOT Hips
{
	OFFSET	0.00	0.00	0.00
	CHANNELS 6 Xposition Yposition Zposition Zrotation Xrotation Yrotation
	JOINT Spine
	{
		OFFSET	 0.00	0.01	 0.00
		CHANNELS 3 Zrotation Xrotation Yrotation
		JOINT Spine1
		{
			OFFSET	 0.00	 2.45913012437421	 0.00
			CHANNELS 3 Zrotation Xrotation Yrotation
            JOINT Neck
            {
                OFFSET	 0.00	 2.48462964506057	 0.00
                CHANNELS 3 Zrotation Xrotation Yrotation
                JOINT Head
                {
                    OFFSET	 0.00	 0.927524780924562	 0.00
                    CHANNELS 3 Zrotation Xrotation Yrotation
                    End Site 
                    {
                        OFFSET	 0.00	 1.14999962169752	 0.00
                    }
                }
            }
			JOINT LeftShoulder
			{
				OFFSET	 0.00	 2.48462964506057	 0.00
				CHANNELS 3 Zrotation Xrotation Yrotation
				JOINT LeftUpArm
				{
					OFFSET	 0.00	 1.24881979654096	 0.00
					CHANNELS 3 Zrotation Xrotation Yrotation
					JOINT LeftForeArm
					{
						OFFSET	 0.00	2.59758046908119	 0.00
						CHANNELS 3 Zrotation Xrotation Yrotation
						JOINT LeftHand
						{
							OFFSET	 0.00	2.45542024364365	 0.00
							CHANNELS 3 Zrotation Xrotation Yrotation
							JOINT LeftHandThumb 
							{
								OFFSET	 0.00	0.00	 0.00
								CHANNELS 3 Zrotation Xrotation Yrotation
								End Site
								{
									OFFSET	 0.00	0.00	1.00000003353624
								}
							}
							JOINT L_Wrist_End 
							{
								OFFSET	 0.00	0.99999967115358	 0.00
								CHANNELS 3 Zrotation Xrotation Yrotation
								End Site 
								{
									OFFSET	 0.00	 0.00	 0.00
								}
							}
						}
					}
				}
			}
			JOINT RightShoulder
			{
				OFFSET	 0.00	 2.48462964506057	 0.00
				CHANNELS 3 Zrotation Xrotation Yrotation
				JOINT RightUpArm
				{
					OFFSET	 0.00	 1.24881979654096	 0.00
					CHANNELS 3 Zrotation Xrotation Yrotation
					JOINT RightForeArm
					{
						OFFSET	 0.00	2.59758046908119	 0.00
						CHANNELS 3 Zrotation Xrotation Yrotation
						JOINT RightHand
						{
							OFFSET	 0.00	2.45542024364365	 0.00
							CHANNELS 3 Zrotation Xrotation Yrotation
							JOINT RightHandThumb 
							{
								OFFSET	 0.00	0.00	 0.00
								CHANNELS 3 Zrotation Xrotation Yrotation
								End Site
								{
									OFFSET	 0.00	0.00	1.00000003353624
								}
							}
							JOINT R_Wrist_End 
							{
								OFFSET	 0.00	0.99999967115358	 0.00
								CHANNELS 3 Zrotation Xrotation Yrotation
								End Site 
								{
									OFFSET	 0.00	 0.00	 0.00
								}
							}
						}
					}
				}
			}
		}
	}
	JOINT LeftUpLeg
	{
		OFFSET	 1.2719394002717	 0.00	 0.00
		CHANNELS 3 Zrotation Xrotation Yrotation
		JOINT LeftLowLeg
		{
			OFFSET	 0.00	-4.3429100912261	 0.00
			CHANNELS 3 Zrotation Xrotation Yrotation
			JOINT LeftFoot
			{
				OFFSET	 0.00	-4.48767017425826	 0.00
				CHANNELS 3 Zrotation Xrotation Yrotation
				JOINT LeftToeBase
                {
                    OFFSET	 0.00	0.00	 1.51507020887566
                    CHANNELS 3 Zrotation Xrotation Yrotation
                    End Site 
                    {
                        OFFSET	 0.00	0.00	 0.75000010571191
                    }
                }
			}
		}
	}
	JOINT RightUpLeg
	{
		OFFSET	 -1.2719393604653	 0.00	 0.00
		CHANNELS 3 Zrotation Xrotation Yrotation
		JOINT RightLowLeg
		{
			OFFSET	 0.00	-4.3429100912261	 0.00
			CHANNELS 3 Zrotation Xrotation Yrotation
			JOINT RightFoot
			{
				OFFSET	 0.00	-4.48767017425826	 0.00
				CHANNELS 3 Zrotation Xrotation Yrotation
				JOINT RightToeBase
                {
                    OFFSET	 0.00	0.00	 1.51507020887566
                    CHANNELS 3 Zrotation Xrotation Yrotation
                    End Site 
                    {
                        OFFSET	 0.00	0.00	 0.749999965609858
                    }
                }   
			}
		}
	}
}
MOTION 
Frames:	15 
Frame Time: 0.02 
 -3.680090026855469 -1.0808100128173828 9.301619873046874 107.925 86.7761 969.319 3.99367 -22.1899 1.90008 -6.83404 21.8531 2.7361 9.34994 54.3865 356.853 -76.8568 -80.3423 -424.729 -116.1045 -3.15359 368.127 -47.1437 8.13724 13.1589 0.0 18.2951 0.0 4.01046 -16.6033 -10.4578 0.0 0.0 0.0 0.0 0.0 0.0 121.6616 -5.83202 -359.462 46.931 2.63721 -8.47557 0.0 22.0015 0.0 3.214 -7.16021 15.0403 0.0 0.0 0.0 0.0 0.0 0.0 -4.34787 -1.97623 -9.50661 0.0 16.0943 0.0 -15.1786 -6.719 13.1175 0.0 -20.31814 0.0 1.54645 -3.14353 16.2912 0.0 20.7844 0.0 31.141 -13.428499 -5.47575 0.0 -15.812876 0.0 
  -3.6833700561523437 -1.070719985961914 9.3014599609375 108.05 86.7257 969.196 4.00351 -22.1351 1.93672 -6.8692 21.6471 2.70176 9.3982 54.5247 356.908 -75.5219 -80.39 -423.495 -116.1486 -3.08973 368.165 -46.7229 8.13737 14.5343 0.0 18.7025 0.0 4.88784 -16.285 -8.87461 0.0 0.0 0.0 0.0 0.0 0.0 121.7021 -5.94664 -359.98 46.7888 3.29885 -9.27079 0.0 21.4756 0.0 3.46728 -7.22237 14.963 0.0 0.0 0.0 0.0 0.0 0.0 -4.35929 -2.00124 -9.53095 0.0 15.9631 0.0 -15.2263 -6.6604004 13.1355 0.0 -20.32208 0.0 1.50032 -3.20161 16.1157 0.0 20.7051 0.0 31.1676 -13.396299 -5.35301 0.0 -15.785268 0.0 
  -3.6860501098632814 -1.059810028076172 9.301329956054687 110.653 86.6344 966.665 3.99974 -22.2135 1.95828 -6.87953 21.48 2.69814 9.3618 54.4289 357.087 -73.7444 -80.4684 -421.919 -116.1951 -2.99124 368.213 -46.3656 8.20845 15.4971 0.0 18.9664 0.0 5.74723 -15.9164 -6.84155 0.0 0.0 0.0 0.0 0.0 0.0 121.7699 -5.91224 -360.102 46.6031 3.44745 -10.4002 0.0 21.0788 0.0 3.76977 -7.65 14.341 0.0 0.0 0.0 0.0 0.0 0.0 -4.35817 -2.20319 -9.59041 0.0 15.8646 0.0 -15.252 -6.5953007 13.1188 0.0 -20.30771 0.0 1.54166 -3.43508 16.3771 0.0 20.7516 0.0 31.1409 -13.5464 -5.61135 0.0 -15.764733 0.0 
  -3.688009948730469 -1.0481400299072265 9.301229858398438 113.792 86.5209 963.622 3.99237 -22.2574 2.00084 -6.89181 21.2283 2.70147 9.26336 54.35 357.465 -72.4598 -80.6678 -420.894 -116.2338 -2.84514 368.089 -46.1479 8.1144 15.8269 0.0 19.0778 0.0 6.27101 -15.4441 -5.43887 0.0 0.0 0.0 0.0 0.0 0.0 121.8532 -5.86232 -360.083 46.4344 3.42559 -11.556 0.0 20.6606 0.0 4.10084 -7.87508 14.3339 0.0 0.0 0.0 0.0 0.0 0.0 -4.34794 -2.45434 -9.58366 0.0 15.756 0.0 -15.2497 -6.492201 13.0425 0.0 -20.345661 0.0 1.55625 -3.69941 16.4844 0.0 20.7474 0.0 31.1427 -13.6434 -5.76565 0.0 -15.743325 0.0 
  -3.6888299560546876 -1.0361100006103516 9.301199951171874 116.873 86.3875 960.649 3.94251 -22.2974 1.98308 -6.87688 20.9874 2.68824 9.00515 54.153 358.124 -70.7427 -80.9464 -419.41 -116.2686 -2.83197 368.06 -46.0827 8.19013 15.5444 0.0 19.0643 0.0 6.73396 -14.9663 -3.89559 0.0 0.0 0.0 0.0 0.0 0.0 121.8814 -5.70566 -360.048 46.2945 3.29858 -12.835 0.0 20.2952 0.0 4.35871 -8.13405 13.2589 0.0 0.0 0.0 0.0 0.0 0.0 -4.35953 -2.71952 -9.66246 0.0 15.6491 0.0 -15.2817 -6.4193993 13.0134 0.0 -20.32539 0.0 1.56032 -3.98447 16.5972 0.0 20.7618 0.0 31.1716 -13.737801 -5.90347 0.0 -15.774355 0.0 
  -3.6900601196289062 -1.0247200012207032 9.300919799804687 118.498 86.2677 959.195 3.81362 -22.2816 1.90983 -6.84257 20.807 2.71029 8.80508 53.9467 358.798 -68.9206 -81.298 -417.882 -116.2543 -2.85772 368.072 -46.111 8.38481 15.1696 0.0 18.9718 0.0 7.14726 -14.6747 -2.2302 0.0 0.0 0.0 0.0 0.0 0.0 121.8936 -5.61393 -360.021 46.1986 3.16766 -13.9637 0.0 20.0966 0.0 4.7284 -8.62097 14.172 0.0 0.0 0.0 0.0 0.0 0.0 -4.38705 -2.93052 -9.68694 0.0 15.5831 0.0 -15.3058 -6.307699 12.9021 0.0 -20.32955 0.0 1.59954 -4.22618 16.9374 0.0 20.9263 0.0 31.2716 -14.0086 -6.19911 0.0 -15.719028 0.0 
  -3.691369934082031 -1.0106900024414063 9.300709838867187 119.651 86.1985 958.203 3.73276 -22.1695 1.89278 -6.83345 20.6513 2.73631 8.64848 53.6184 359.403 -66.9755 -81.6449 -416.244 -116.2034 -2.76931 367.835 -46.234 8.32742 14.7979 0.0 18.8865 0.0 7.32478 -14.5486 -1.48777 0.0 0.0 0.0 0.0 0.0 0.0 121.9445 -5.52258 -360.01 46.1139 3.03362 -14.7291 0.0 19.948 0.0 5.11682 -8.88567 14.7008 0.0 0.0 0.0 0.0 0.0 0.0 -4.38794 -3.16474 -9.69039 0.0 15.6342 0.0 -15.2868 -6.2164993 12.7802 0.0 -20.36404 0.0 1.62201 -4.43995 16.9561 0.0 21.056 0.0 31.4046 -14.105499 -6.24363 0.0 -15.720922 0.0 
  -3.692250061035156 -0.9968409729003906 9.301480102539063 121.563 86.1578 956.406 3.77038 -22.1385 1.98003 -6.86662 20.6145 2.78156 8.82542 53.2519 359.523 -65.5042 -81.9504 -415.054 -116.1534 -2.69093 367.713 -46.3593 8.43909 14.3457 0.0 18.7614 0.0 7.26245 -14.6387 -1.24555 0.0 0.0 0.0 0.0 0.0 0.0 122.0298 -5.42978 -360.24 46.0432 3.20287 -15.1181 0.0 19.6824 0.0 5.6427 -9.34609 15.5934 0.0 0.0 0.0 0.0 0.0 0.0 -4.34063 -3.42138 -9.69509 0.0 15.6882 0.0 -15.3102 -6.1616 12.6777 0.0 -20.34768 0.0 1.56584 -4.61152 16.3021 0.0 20.908 0.0 31.3289 -13.817101 -5.9218 0.0 -15.775832 0.0 
  -3.691619873046875 -0.9789720153808594 9.300759887695312 123.01 86.1346 955.401 3.66329 -22.0009 1.79854 -6.79707 20.5382 2.66393 8.99852 52.9092 359.522 -64.5478 -82.1563 -414.348 -116.1484 -2.63273 367.607 -46.5392 8.61643 13.7181 0.0 18.5483 0.0 6.93629 -14.6932 -1.50848 0.0 0.0 0.0 0.0 0.0 0.0 122.095 -5.23857 -360.35 45.988 3.132 -15.0016 0.0 19.6293 0.0 5.89408 -9.66295 17.3776 0.0 0.0 0.0 0.0 0.0 0.0 -4.34218 -3.79182 -10.0761 0.0 15.9516 0.0 -15.3621 -6.1516 12.571 0.0 -20.36265 0.0 1.56656 -4.78936 15.8137 0.0 20.9524 0.0 31.2198 -13.783001 -5.9475 0.0 -15.851082 0.0 
  -3.6920901489257814 -0.9659839630126953 9.299929809570312 123.87 86.0396 954.699 3.56377 -21.9847 1.75431 -6.76815 20.5835 2.74008 9.40126 52.5602 359.169 -63.5591 -82.3037 -413.454 -116.1172 -2.56874 367.575 -46.6798 8.732 13.5003 0.0 18.5344 0.0 6.7737 -14.8239 -2.14382 0.0 0.0 0.0 0.0 0.0 0.0 122.073 -5.12639 -360.483 46.0809 3.11934 -14.6295 0.0 19.6487 0.0 5.76366 -9.52451 18.229 0.0 0.0 0.0 0.0 0.0 0.0 -4.38563 -4.04515 -10.1524 0.0 16.062 0.0 -15.4353 -6.1126003 12.4516 0.0 -20.35652 0.0 1.60347 -5.03848 16.0701 0.0 21.1821 0.0 31.2769 -14.018499 -6.19438 0.0 -15.810642 0.0 
  -3.691470031738281 -0.9566940307617188 9.299539794921875 123.854 86.008 954.809 3.53925 -21.9436 1.75513 -6.77542 20.6832 2.78526 9.57936 52.3203 359.014 -62.7927 -82.3651 -412.781 -116.0934 -2.54034 367.538 -46.8457 8.89549 13.1812 0.0 18.3978 0.0 6.6388 -14.8279 -2.25898 0.0 0.0 0.0 0.0 0.0 0.0 122.0859 -5.04264 -360.564 46.1123 3.12871 -14.2532 0.0 19.7161 0.0 5.5605 -9.47557 18.4415 0.0 0.0 0.0 0.0 0.0 0.0 -4.42109 -4.16049 -10.2095 0.0 16.124 0.0 -15.4507 -6.0783005 12.4171 0.0 -20.37519 0.0 1.59387 -5.16286 16.0141 0.0 21.3264 0.0 31.222 -14.0872 -6.23864 0.0 -15.723656 0.0 
  -3.691300048828125 -0.9448729705810547 9.299600219726562 124.209 85.962 954.689 3.51834 -21.9872 1.73712 -6.82434 20.9192 2.82428 10.0442 52.0468 358.524 -62.173 -82.4634 -412.253 -116.1046 -2.4431 367.507 -46.9326 8.97355 13.2223 0.0 18.4427 0.0 6.57134 -14.7585 -2.40033 0.0 0.0 0.0 0.0 0.0 0.0 122.121704 -4.96837 -360.627 46.1915 3.14606 -13.6269 0.0 19.8541 0.0 5.21792 -9.38907 18.4651 0.0 0.0 0.0 0.0 0.0 0.0 -4.4509 -4.34769 -10.3266 0.0 16.2121 0.0 -15.5226 -6.0079994 12.2866 0.0 -20.37975 0.0 1.55684 -5.33186 15.6838 0.0 21.4728 0.0 31.1864 -14.059799 -6.17444 0.0 -15.732812 0.0 
  -3.6906698608398436 -0.9362149810791016 9.299010009765626 123.841 85.9465 955.216 3.515 -21.9966 1.72241 -6.87204 21.1121 2.83514 10.2293 51.9172 358.315 -61.5827 -82.4684 -411.789 -116.1206 -2.37403 367.545 -46.9439 8.97588 13.5101 0.0 18.6241 0.0 6.63469 -14.8511 -3.37157 0.0 0.0 0.0 0.0 0.0 0.0 122.1073 -4.64941 -360.173 46.2708 2.54246 -13.3706 0.0 20.0906 0.0 5.04264 -9.36541 18.2028 0.0 0.0 0.0 0.0 0.0 0.0 -4.48445 -4.43204 -10.4068 0.0 16.2679 0.0 -15.4677 -5.9372997 12.2373 0.0 -20.40143 0.0 1.57201 -5.42926 15.7906 0.0 21.6625 0.0 31.01 -14.212099 -6.43755 0.0 -15.686095 0.0 
  -3.6907598876953127 -0.9290879821777344 9.298790283203125 123.174 85.9447 956.029 3.50434 -22.0271 1.69695 -6.92506 21.3528 2.85148 10.3849 51.8356 358.147 -60.7696 -82.4563 -411.098 -116.1653 -2.31766 367.511 -46.9483 8.94492 13.6538 0.0 18.723 0.0 6.47261 -14.9508 -4.06906 0.0 0.0 0.0 0.0 0.0 0.0 122.122 -4.71762 -360.37 46.2697 2.9086 -13.2533 0.0 20.1514 0.0 4.88184 -9.22247 17.7943 0.0 0.0 0.0 0.0 0.0 0.0 -4.5221 -4.47526 -10.5166 0.0 16.3157 0.0 -15.5181 -5.903099 12.1966 0.0 -20.401821 0.0 1.56095 -5.47284 15.7179 0.0 21.7906 0.0 31.1866 -14.2591 -6.38934 0.0 -15.767871 0.0 
  -3.6908700561523435 -0.9233699798583984 9.2985400390625 122.711 85.9517 956.664 3.50364 -22.1123 1.6557 -6.98072 21.6169 2.84576 10.4523 51.8554 358.098 -59.6511 -82.4124 -410.107 -116.1749 -2.26071 367.525 -46.9459 8.88307 13.8709 0.0 18.8581 0.0 6.30576 -15.1718 -4.79421 0.0 0.0 0.0 0.0 0.0 0.0 122.123505 -4.92901 -360.531 46.2458 3.43379 -13.49 0.0 20.2388 0.0 5.01202 -9.46193 18.0987 0.0 0.0 0.0 0.0 0.0 0.0 -4.54558 -4.5222 -10.6626 0.0 16.3686 0.0 -15.5483 -5.8649006 12.1547 0.0 -20.42456 0.0 1.5546 -5.49265 15.5832 0.0 21.8823 0.0 31.2608 -14.3137 -6.37401 0.0 -15.737188 0.0 
